<svg id="Layer_1" data-name="Layer 1" xmlns="http://www.w3.org/2000/svg" viewBox="0 0 500 248.6"><defs><style>.cls-1{fill:#0f0f0f;}.cls-2{fill:#d71f27;}.cls-3{fill:#fff;}.cls-4{fill:#231f20;}</style></defs><path class="cls-1" d="M233.26,106a77.79,77.79,0,0,1-14.92,1.45A69.63,69.63,0,0,1,186.47,100C161.87,87.52,152.4,63.24,149,49.87A24.6,24.6,0,0,0,129.78,32c-22.46-4.27-55.45-10.83-82.59-16.41l-1.5-.34L9.1,7.54l-5-1L6,11.23a31.08,31.08,0,0,0,4.86,8.39l-4.58-1,1.85,4.73A31.43,31.43,0,0,0,13,31.88l-2.69-.57L12.2,36A30.45,30.45,0,0,0,20,47.58l-1.62-.09L21,51.88A30.33,30.33,0,0,0,31.13,62.46a26.55,26.55,0,0,0,4,2.05l-2.38.64,3.78,3.38A24.72,24.72,0,0,0,47,74.2l.86.2-.25.11L52,77.15A24.62,24.62,0,0,0,63.32,80.8c.5,0,1,0,1.44,0h.38l4.15,1.77c.51.22,1,.42,1.56.59l-1.3.86,4.67,2c.29.13.58.24.87.35l-2.45,1.63,4.66,2c.34.15.68.28,1,.41h0l-4.23,2.81,4.66,2a19.24,19.24,0,0,0,2,.73l-1.62,1.4-3.83,3.32,4.88,1.39a26.25,26.25,0,0,0,2.56.59l-.49.43-1.49,1.29-3.84,3.33,4.89,1.39c.8.22,1.6.41,2.41.56l-.55.47-.7.61-3.83,3.33L84,115.5a25.92,25.92,0,0,0,7,1h.52L88.4,120,85,123.75l5,.77a32.32,32.32,0,0,0,4.89.38,30.55,30.55,0,0,0,5-.41L97,128.29l-1,1.25-3,4.06,5.07.33c.63,0,1.36.07,2.16.07a30.75,30.75,0,0,0,8.18-1.08l-1.69,2.38-2.93,4.15,5.08.18c.36,0,.76,0,1.19,0a30.46,30.46,0,0,0,11-2l-1.77,2.87-2.66,4.32,5.08-.14A31,31,0,0,0,131.1,143l-.12.22-2.51,4.41,5.07-.31a25.18,25.18,0,0,0,9.06-2.26l-1.52,3.69,5-.95a25.76,25.76,0,0,0,6.65-2.22l-1.08,2.62,5-1a25.18,25.18,0,0,0,6.53-2.16l-1,2.3,5-1a25.17,25.17,0,0,0,9.1-3.63l-.65,2.58,4.8-1.66a17.86,17.86,0,0,0,2.41-1l-.11.45,4.8-1.66a19.19,19.19,0,0,0,2.41-1l0,.16,4.8-1.67a17.82,17.82,0,0,0,4.76-2.49l-.1.42,5.06-2.29a89,89,0,0,0,13.63-7.77,89.72,89.72,0,0,0,17.84-16.38l4.92-5.93ZM216.5,124.59a86.43,86.43,0,0,1-13.21,7.53v0a17.47,17.47,0,0,1-1.84.79l1.47-5.85a16,16,0,0,1-3.23,5.58,14.6,14.6,0,0,1-5.89,3.77c.45-1.78.89-3.57,1.34-5.35a14,14,0,0,1-2.62,4.12,14.66,14.66,0,0,1-5.89,3.76c.47-1.88,1-3.77,1.42-5.66a13.8,13.8,0,0,1-2.63,4.15,14.66,14.66,0,0,1-5.89,3.76c.66-2.62,1.32-5.25,2-7.87a21.62,21.62,0,0,1-5.16,6.12,22.05,22.05,0,0,1-9.68,4.36q1.76-4.23,3.5-8.48a19.75,19.75,0,0,1-4.39,4.93,22.13,22.13,0,0,1-9.67,4.37q1.89-4.57,3.77-9.15a20.43,20.43,0,0,1-4.65,5.33,22.19,22.19,0,0,1-9.67,4.36q1.8-4.38,3.61-8.75a21.12,21.12,0,0,1-5.66,5.12,22.36,22.36,0,0,1-10.14,3.11l5-8.76a23.52,23.52,0,0,1-3.78,2.63A28,28,0,0,1,121.68,142l8.54-13.86a27.14,27.14,0,0,1-8.13,6.14,27.71,27.71,0,0,1-12,2.67l-1.09,0,8.08-11.43a24.59,24.59,0,0,1-5.65,3.48,27.45,27.45,0,0,1-11.17,2.32c-.73,0-1.4,0-2-.07l9.14-12.13a24.12,24.12,0,0,1-3.69,1.63,27.07,27.07,0,0,1-8.83,1.46,29.42,29.42,0,0,1-4.47-.34L99.25,112a19.62,19.62,0,0,1-3.88,1.29,21.46,21.46,0,0,1-4.36.45,22.58,22.58,0,0,1-6.24-.89l6.48-5.62a21.29,21.29,0,0,1-2.47.14,23,23,0,0,1-6.22-.87l7.27-6.31a22.68,22.68,0,0,1-2.66.16,23,23,0,0,1-6.24-.88l6.51-5.65c-.24,0-.46.09-.71.11s-.74,0-1.09,0a14.87,14.87,0,0,1-5.81-1.22l6.27-4.16c-.27,0-.53.1-.82.12s-.73,0-1.09,0a14.77,14.77,0,0,1-5.8-1.22l4.34-2.88c-.19,0-.35.07-.54.08-.37,0-.73,0-1.08,0a14.83,14.83,0,0,1-5.81-1.22L79.18,81a12.25,12.25,0,0,1-1.92.3c-.37,0-.73,0-1.08,0a14.83,14.83,0,0,1-5.81-1.22l7.21-4.78a17.3,17.3,0,0,0,6,.24,22.72,22.72,0,0,0,5.62-1.67c1.76-.77,3.49-1.63,5.18-2.49L88.91,73a28.92,28.92,0,0,1-5.48.92,17.45,17.45,0,0,1-8.08-1.75c1.4-.64,2.8-1.26,4.18-1.92l7.41-3.49a11,11,0,0,0,2.62.2,22.24,22.24,0,0,0,7.19-2.27c-2.43.37-4.89,1-7.2.86a11.14,11.14,0,0,1-4.68-1.38l2.42-.88,7-2.57-7.43.59a20.73,20.73,0,0,1-6.15,0A11.82,11.82,0,0,1,76.06,59c1-.29,2.1-.57,3.14-.9l.34-.1-.34,0-.57-.07.23.1c-1.34.07-2.66.19-4,.29l-.94.07.65.8A11.77,11.77,0,0,0,80.22,63a10.8,10.8,0,0,0,1.37.3l-1,.38,1.5,1.06a12.34,12.34,0,0,0,4,1.84l-7.33,1.15c-1.58.26-3.25.49-4.86.64a16.78,16.78,0,0,1-4.65-.09,17.48,17.48,0,0,1-6.7-2.72l4.19-1.3,3.75-1.17-3.82-.48c-2-.25-3.91-.47-5.81-.85a23.39,23.39,0,0,1-5.55-1.91,21.17,21.17,0,0,0,7.56,3.54l-3,.68-2,.44L59.33,66a18.77,18.77,0,0,0,9.39,4.92,18.05,18.05,0,0,0,2.93.28L70,72,72,73.12a18.84,18.84,0,0,0,5,2c-1.15.45-2.23.85-3.16,1.15a27.76,27.76,0,0,1-9,1.83c-.41,0-.83,0-1.26,0a22.12,22.12,0,0,1-10.1-3.25L61,71.18c-1.07.2-2.06.35-2.94.47a43.23,43.23,0,0,1-5.6.48,19.36,19.36,0,0,1-4.8-.59,22.25,22.25,0,0,1-9.34-5.05l7.69-2-1-.17c-4.6-.85-8.3-1.57-12.42-4.14a27.84,27.84,0,0,1-9.24-9.64l7.54.39A26.9,26.9,0,0,1,22.39,46a27.91,27.91,0,0,1-7.63-11l9,1.89a24.38,24.38,0,0,1-5.46-3.58,27.91,27.91,0,0,1-7.63-11l10.71,2.25a23.67,23.67,0,0,1-5.21-3.46A27.89,27.89,0,0,1,8.54,10.23l36.59,7.68v0c25.93,5.35,60.09,12.16,84.14,16.74a21.71,21.71,0,0,1,17,15.88c3.89,15.07,13.87,39.17,38.94,51.92a72.8,72.8,0,0,0,33.11,7.74,79.56,79.56,0,0,0,15.45-1.51A86.61,86.61,0,0,1,216.5,124.59Z"/><path class="cls-1" d="M164.91,116.67l-5.69,6.67a14,14,0,0,1-4.44,3.53,15,15,0,0,1-2.93,1c.64-1.21,1.29-2.41,1.92-3.63l2.4-4.64-4.1,3.23-2.26,1.79a16.79,16.79,0,0,1-2.56,1.43,22.21,22.21,0,0,1-5.78,1.78,17.26,17.26,0,0,0,6.26-.44c.63-.18,1.26-.4,1.88-.64-.45.74-.92,1.47-1.36,2.22L147,131.12l2.45-.12a15.42,15.42,0,0,0,6.52-1.74,13.91,13.91,0,0,0,1.38-.82c-.15.43-.31.85-.45,1.28l-.46,1.47,1.36-.37a13.68,13.68,0,0,0,6.41-3.75,16.38,16.38,0,0,1-5.18,1.93c.74-1.48,1.47-3,2.17-4.46Z"/><path class="cls-1" d="M259.18,104.54l4.92,5.93a89.72,89.72,0,0,0,17.84,16.38,89,89,0,0,0,13.63,7.77l5.06,2.29-.1-.42a17.82,17.82,0,0,0,4.76,2.49l4.8,1.67,0-.16a19.19,19.19,0,0,0,2.41,1l4.8,1.66-.11-.45a17.33,17.33,0,0,0,2.41,1l4.8,1.66-.65-2.58a25.17,25.17,0,0,0,9.1,3.63l5,1-.95-2.3a25.18,25.18,0,0,0,6.53,2.16l5,1-1.08-2.62a25.76,25.76,0,0,0,6.65,2.22l5,.95-1.52-3.69a25.18,25.18,0,0,0,9.06,2.26l5.07.31L369,143.26l-.12-.22a31,31,0,0,0,9.34,1.66l5.08.14-2.66-4.32-1.77-2.87a30.46,30.46,0,0,0,11,2c.43,0,.83,0,1.19,0l5.08-.18-2.93-4.15-1.69-2.38a30.75,30.75,0,0,0,8.18,1.08c.8,0,1.53,0,2.16-.07l5.07-.33-3-4.06-1-1.25-2.87-3.8a30.76,30.76,0,0,0,5,.41,32.32,32.32,0,0,0,4.89-.38l5-.77L411.6,120l-3.13-3.49H409a25.93,25.93,0,0,0,7-1l4.88-1.39L417,110.78l-.7-.61-.55-.47c.81-.15,1.61-.34,2.41-.56l4.89-1.39-3.84-3.33-1.49-1.29-.49-.43a26.25,26.25,0,0,0,2.56-.59l4.88-1.39-3.83-3.32L419.25,96a19.24,19.24,0,0,0,2-.73l4.66-2-4.23-2.81h0c.35-.13.69-.26,1-.41l4.67-2-2.45-1.63c.29-.11.58-.22.87-.35l4.67-2-1.3-.86c.53-.17,1.05-.37,1.56-.59l4.15-1.77h.38c.46,0,.94,0,1.44,0A24.62,24.62,0,0,0,448,77.15l4.34-2.64-.25-.11.86-.2a24.72,24.72,0,0,0,10.5-5.67l3.78-3.38-2.38-.64a26.55,26.55,0,0,0,4-2.05A30.33,30.33,0,0,0,479,51.88l2.56-4.39-1.62.09A30.57,30.57,0,0,0,487.8,36l1.85-4.73-2.69.57a31.43,31.43,0,0,0,4.93-8.49l1.85-4.73-4.58,1A31.08,31.08,0,0,0,494,11.23l1.85-4.73-5,1-36.59,7.69-1.5.34C425.67,21.15,392.68,27.71,370.22,32a24.6,24.6,0,0,0-19.17,17.89C347.6,63.24,338.13,87.52,313.53,100a69.63,69.63,0,0,1-31.87,7.44A77.79,77.79,0,0,1,266.74,106Zm7,4.17a79.56,79.56,0,0,0,15.45,1.51,72.8,72.8,0,0,0,33.11-7.74c25.07-12.75,35.05-36.85,38.94-51.92a21.71,21.71,0,0,1,17-15.88c24-4.58,58.21-11.39,84.14-16.74v0l36.59-7.68a27.89,27.89,0,0,1-7.63,11,23.67,23.67,0,0,1-5.21,3.46l10.71-2.25a27.91,27.91,0,0,1-7.63,11,24.38,24.38,0,0,1-5.46,3.58l9-1.89a27.91,27.91,0,0,1-7.63,11,26.9,26.9,0,0,1-8.49,4.88l7.54-.39a27.94,27.94,0,0,1-9.24,9.64c-4.12,2.57-7.82,3.29-12.42,4.14l-1,.17,7.69,2a22.32,22.32,0,0,1-9.34,5.05,19.36,19.36,0,0,1-4.8.59,43.23,43.23,0,0,1-5.6-.48c-.88-.12-1.87-.27-2.94-.47l7.63,3.63a22.12,22.12,0,0,1-10.1,3.25c-.43,0-.85,0-1.26,0a27.76,27.76,0,0,1-9-1.83c-.93-.3-2-.7-3.16-1.15a18.84,18.84,0,0,0,5-2L430,72l-1.61-.82a18.05,18.05,0,0,0,2.93-.28A18.77,18.77,0,0,0,440.67,66l1.55-1.47-2-.44-3-.68a21.17,21.17,0,0,0,7.56-3.54,23.39,23.39,0,0,1-5.55,1.91c-1.9.38-3.86.6-5.81.85l-3.82.48,3.75,1.17,4.19,1.3a17.48,17.48,0,0,1-6.7,2.72,16.78,16.78,0,0,1-4.65.09c-1.61-.15-3.28-.38-4.86-.64L414,66.57a12.34,12.34,0,0,0,4-1.84l1.5-1.06-1-.38a10.8,10.8,0,0,0,1.37-.3,11.77,11.77,0,0,0,5.64-3.85l.65-.8-.94-.07c-1.33-.1-2.65-.22-4-.29l.23-.1-.57.07-.34,0,.34.1c1,.33,2.09.61,3.14.9a11.89,11.89,0,0,1-4.62,2.27,20.73,20.73,0,0,1-6.15,0l-7.43-.59,7,2.57,2.41.88a11.05,11.05,0,0,1-4.67,1.38c-2.31.15-4.77-.49-7.2-.86A22.16,22.16,0,0,0,410.44,67a11,11,0,0,0,2.62-.2l7.41,3.49c1.38.66,2.78,1.28,4.17,1.92a17.38,17.38,0,0,1-8.07,1.75,28.92,28.92,0,0,1-5.48-.92l-5.47-1.6c1.69.86,3.42,1.72,5.18,2.49a22.72,22.72,0,0,0,5.62,1.67,17.36,17.36,0,0,0,6-.24l7.2,4.78a14.83,14.83,0,0,1-5.81,1.22c-.35,0-.71,0-1.08,0a12.25,12.25,0,0,1-1.92-.3l3.88,2.57a14.83,14.83,0,0,1-5.81,1.22c-.35,0-.71,0-1.08,0-.19,0-.35-.06-.54-.08l4.34,2.88a14.77,14.77,0,0,1-5.8,1.22c-.36,0-.72,0-1.09,0s-.55-.08-.82-.12l6.27,4.16A14.87,14.87,0,0,1,414.36,94c-.35,0-.72,0-1.09,0s-.47-.07-.71-.11l6.51,5.65a23,23,0,0,1-6.24.88,22.55,22.55,0,0,1-2.66-.16l7.27,6.31a23,23,0,0,1-6.22.87,21.29,21.29,0,0,1-2.47-.14l6.48,5.62a22.6,22.6,0,0,1-6.25.89,21.43,21.43,0,0,1-4.35-.45,19.62,19.62,0,0,1-3.88-1.29l8.81,9.81a29.42,29.42,0,0,1-4.47.34,27,27,0,0,1-8.83-1.46,24.12,24.12,0,0,1-3.69-1.63l9.14,12.13c-.58,0-1.25.07-2,.07a27.53,27.53,0,0,1-11.18-2.32,24.73,24.73,0,0,1-5.64-3.48L391,136.89l-1.09,0a27.71,27.71,0,0,1-12-2.67,27.14,27.14,0,0,1-8.13-6.14L378.32,142a28,28,0,0,1-12.89-3.47,23.52,23.52,0,0,1-3.78-2.63l5,8.76a22.36,22.36,0,0,1-10.14-3.11,21.12,21.12,0,0,1-5.66-5.12q1.82,4.37,3.61,8.75a22.19,22.19,0,0,1-9.67-4.36,20.43,20.43,0,0,1-4.65-5.33q1.88,4.58,3.77,9.15a22.13,22.13,0,0,1-9.67-4.37,19.75,19.75,0,0,1-4.39-4.93q1.74,4.24,3.5,8.48a22.05,22.05,0,0,1-9.68-4.36,21.46,21.46,0,0,1-5.16-6.12c.65,2.62,1.31,5.25,2,7.87a14.66,14.66,0,0,1-5.89-3.76,13.8,13.8,0,0,1-2.63-4.15c.47,1.89.95,3.78,1.42,5.66a14.66,14.66,0,0,1-5.89-3.76,13.76,13.76,0,0,1-2.62-4.12c.45,1.78.89,3.57,1.34,5.35a14.6,14.6,0,0,1-5.89-3.77,16,16,0,0,1-3.23-5.58l1.47,5.85a17.47,17.47,0,0,1-1.84-.79v0a86.23,86.23,0,0,1-30.5-23.41Z"/><path class="cls-1" d="M335.09,116.67l5.69,6.67a14,14,0,0,0,4.44,3.53,15,15,0,0,0,2.93,1c-.64-1.21-1.29-2.41-1.92-3.63l-2.4-4.64,4.1,3.23,2.26,1.79a16.79,16.79,0,0,0,2.56,1.43,22.21,22.21,0,0,0,5.78,1.78,17.26,17.26,0,0,1-6.26-.44c-.63-.18-1.26-.4-1.88-.64.45.74.92,1.47,1.36,2.22l1.21,2.11-2.45-.12a15.42,15.42,0,0,1-6.52-1.74,13.91,13.91,0,0,1-1.38-.82c.15.43.31.85.45,1.28l.46,1.47-1.36-.37a13.63,13.63,0,0,1-6.41-3.75,16.29,16.29,0,0,0,5.18,1.93c-.74-1.48-1.47-3-2.17-4.46Z"/><path id="prefix_Shape" data-name="prefix  Shape" class="cls-2" d="M178.22,36.88c2.28-.46,5,0,7.75,0H319.5A5.93,5.93,0,0,1,325,40.52a43.9,43.9,0,0,1,.46,7.75V182.72c0,2.28-1.37,5-3.65,5.47s-4.56,0-6.38,0H181a5,5,0,0,1-5.47-5.47c-.91-46.94-.91-93.43-.91-140.37C174.12,40.07,175.94,37.79,178.22,36.88Z"/><path id="prefix_Shape-2" data-name="prefix  Shape" class="cls-3" d="M276.21,70.15h16v88.41h-15.5C276.21,128.94,276.21,99.32,276.21,70.15ZM242,99.32V159h16V99.32ZM208.3,128.94v29.62h15.95V128.94Z"/><path class="cls-4" d="M124.18,221.86a1.92,1.92,0,0,1-1.8-.86,8.16,8.16,0,0,1-.6-2.52q-1.75.45-5.38,1.63c-2.5,1-3.76,2.22-3.78,3.68a8.39,8.39,0,0,0,1.38.38,22.29,22.29,0,0,1,8,2.63,7.92,7.92,0,0,1,3.8,7.08,6.25,6.25,0,0,1-3.28,5.73,13.65,13.65,0,0,1-6.9,1.58,16.74,16.74,0,0,1-5.82-1q-3.58-1.3-3.59-3.64a2.2,2.2,0,0,1,.74-1.63,2.35,2.35,0,0,1,1.66-.7,3.16,3.16,0,0,1,1.86,1.12,5.46,5.46,0,0,0,2.52.89,16.06,16.06,0,0,0,2.63.28A11.56,11.56,0,0,0,119,236c1.44-.45,2.17-1.16,2.17-2.14q0-3.16-4.43-4.29l-2.42-.53a12.71,12.71,0,0,1-4.4-1.59,4.46,4.46,0,0,1-1.89-3.93,7.11,7.11,0,0,1,4.59-6.94,36.45,36.45,0,0,1,4.47-1.51,32.75,32.75,0,0,0,4.4-1.48,5.11,5.11,0,0,1,2.07-.42,2.21,2.21,0,0,1,1.65.66,2.34,2.34,0,0,1,.64,1.7,9.5,9.5,0,0,0,.29,2,10.24,10.24,0,0,1,.29,2,2.32,2.32,0,0,1-.64,1.7A2.23,2.23,0,0,1,124.18,221.86Z"/><path class="cls-4" d="M142.55,240.87a13.1,13.1,0,0,1-8.52-2.64,9.91,9.91,0,0,1-3.56-8.15,16.94,16.94,0,0,1,2.93-10.15,10,10,0,0,1,8.52-4.48,13.39,13.39,0,0,1,6.32,1.31,5.26,5.26,0,0,1,3,4.94q0,2.33-2.63,4.24a38.64,38.64,0,0,1-4.94,2.6l-8.9,4.22a8.52,8.52,0,0,0,3.25,2.91,10,10,0,0,0,4.53,1,14.1,14.1,0,0,0,3.78-.61q2.74-.76,3.54-2c.53-.83,1.09-1.25,1.7-1.25a2,2,0,0,1,1.45.62,1.92,1.92,0,0,1,.64,1.43q0,2.59-4.17,4.45A16.92,16.92,0,0,1,142.55,240.87Zm-.63-21.22a5.94,5.94,0,0,0-4.72,2.2,14.79,14.79,0,0,0-2.82,6.62l7.15-3.4a30.53,30.53,0,0,0,6-3.56A8,8,0,0,0,141.92,219.65Z"/><path class="cls-4" d="M168.55,238.58a1.93,1.93,0,0,1-2.12,2.15,2.61,2.61,0,0,1-2.47-2l-3.56-9.45-4.15-10.69a3,3,0,0,1-.23-1.08,2.16,2.16,0,0,1,.72-1.63,2.37,2.37,0,0,1,1.68-.67,2.06,2.06,0,0,1,2,1.42l5.91,16.28q1.75-3.72,4.41-10.81.63-1.86,2-5.26a2.23,2.23,0,0,1,2.05-1.49,2.37,2.37,0,0,1,1.67.67,2.15,2.15,0,0,1,.73,1.61q0,.88-3.85,10Z"/><path class="cls-4" d="M184.34,240a3.23,3.23,0,0,1-2.31-.95,3,3,0,0,1-.93-2.22c0-1.55.08-3.88.22-7s.22-5.43.22-7q0-2.58-.1-7.75c-.07-3.45-.11-6-.11-7.76a3.74,3.74,0,0,1,1.24-2.55,3.67,3.67,0,0,1,2.63-1.27,14.17,14.17,0,0,1,3.87,1.45q3.6,1.73,4.28,1.93A29.78,29.78,0,0,1,205,213.78q5.75,5.52,5.75,12.2a16.52,16.52,0,0,1-7.4,13.6q-3.87,2.52-10.88,2.52a18,18,0,0,1-3.91-.49A13.37,13.37,0,0,1,184.34,240Zm13.09-23.95a80.51,80.51,0,0,0-9.69-4.47v23.06a6.82,6.82,0,0,0,2.08.87,10.67,10.67,0,0,0,2.62.29q5,0,7.23-1.39a9.56,9.56,0,0,0,3.29-3.61,9.88,9.88,0,0,0,1.22-4.75Q204.18,220.29,197.43,216.08Z"/><path class="cls-4" d="M226.31,240.87a14.79,14.79,0,0,1-9.11-2.66,9.76,9.76,0,0,1-3.91-8.27,16,16,0,0,1,3.1-10,11.08,11.08,0,0,1,9.29-4.52,15.31,15.31,0,0,1,6.73,1.31,5.64,5.64,0,0,1,3.52,5.36c0,1.7-1,3.22-2.86,4.54a37.56,37.56,0,0,1-5.24,2.65L220,232.78a6.91,6.91,0,0,0,2.7,1.82,11.33,11.33,0,0,0,8.92-.68,6.68,6.68,0,0,1,3.1-1.14,2.12,2.12,0,0,1,2.42,2.36q0,2.66-3.89,4.33A17.43,17.43,0,0,1,226.31,240.87Zm-.63-19.78a5.21,5.21,0,0,0-3.7,1.44,10.07,10.07,0,0,0-2.47,4.34c1.75-.76,3.5-1.52,5.24-2.26a39.55,39.55,0,0,0,5-2.63A8.22,8.22,0,0,0,225.68,221.09Z"/><path class="cls-4" d="M257.64,222.74a2.48,2.48,0,0,1-2.77-1.93,10.94,10.94,0,0,0-1.91-.16q-5.62,0-5.62,1.54c0,.6,1.13,1.42,3.38,2.44a40.74,40.74,0,0,1,6.24,3.31q3.38,2.44,3.38,5.52a6.59,6.59,0,0,1-3.73,6.08,15.14,15.14,0,0,1-7.38,1.65,16.28,16.28,0,0,1-5.66-.95q-3.49-1.31-3.49-3.85c0-1.55.92-2.33,2.77-2.33a10.84,10.84,0,0,1,3.1.68,10.81,10.81,0,0,0,3.12.68q4.73,0,4.75-1.91c0-.8-1.1-1.67-3.29-2.64a46.93,46.93,0,0,1-6.14-3.05q-3.28-2.31-3.29-5.61c0-3.12,1.66-5.23,5-6.31a30.27,30.27,0,0,1,8.85-1,7.41,7.41,0,0,1,3.45.61,3.07,3.07,0,0,1,1.54,3C259.9,221.35,259.14,222.74,257.64,222.74Z"/><path class="cls-4" d="M284.05,240.75a3,3,0,0,1-2.79-1.77,36.51,36.51,0,0,0-3.43-5l-3.75-4.77c-1.24.91-2.26,1.61-3.07,2.09-.16,2.16-.23,4.23-.23,6.2a3,3,0,0,1-.91,2.23,3.19,3.19,0,0,1-2.31.89c-2.19,0-3.28-1.31-3.28-3.91,0-1.23.09-3.07.26-5.51s.27-4.28.27-5.51c0-2.25,0-4.83.11-7.72s.1-5.46.1-7.68c0-.66,0-1.45-.1-2.36s-.11-1.7-.11-2.36a3,3,0,0,1,.91-2.23,3.22,3.22,0,0,1,2.31-.87,3.18,3.18,0,0,1,2.3.87,2.93,2.93,0,0,1,.91,2.23c0,.68,0,1.49.12,2.42s.11,1.74.11,2.42c0,1.85,0,4-.14,6.57s-.13,4.58-.11,6.47a118.72,118.72,0,0,0,9.64-8.89,3.19,3.19,0,0,1,2.33-1,3.25,3.25,0,0,1,2.31,1,3,3,0,0,1,1,2.21,3.11,3.11,0,0,1-.91,2.07,79,79,0,0,1-6.55,6.43l4.85,6.24c2.34,3.12,3.52,5.2,3.52,6.24a2.79,2.79,0,0,1-1,2.18A3.43,3.43,0,0,1,284.05,240.75Z"/><path class="cls-4" d="M332.41,238.84a35,35,0,0,1-8.27,2.21,50.87,50.87,0,0,1-8.48.91,6.06,6.06,0,0,1-3.38-.72c-.93-.65-1.39-1.85-1.39-3.59l.46-7.71q.6-10.66.61-23.66a2.37,2.37,0,0,1,.66-1.7,2.16,2.16,0,0,1,1.64-.7,2.19,2.19,0,0,1,1.67.7,2.37,2.37,0,0,1,.66,1.7q0,13.16-.63,23.94l-.3,3.54a28.36,28.36,0,0,0-.14,3.43q6.08.06,15.37-2.87a2.65,2.65,0,0,1,.75-.12,2.12,2.12,0,0,1,1.68.8,2.59,2.59,0,0,1,.58,1.65A2.31,2.31,0,0,1,332.41,238.84Z"/><path class="cls-4" d="M343.54,229.22c0,.93,0,2.33.08,4.18s.08,3.25.08,4.18a2.33,2.33,0,0,1-.63,1.68,2.19,2.19,0,0,1-1.65.65,2.22,2.22,0,0,1-1.64-.65,2.3,2.3,0,0,1-.64-1.68c0-.93,0-2.32-.08-4.18s-.08-3.25-.08-4.18c0-1.46.07-3.28.23-5.46s.23-4,.23-5.46a2.3,2.3,0,0,1,.64-1.7,2.38,2.38,0,0,1,3.29,0,2.34,2.34,0,0,1,.64,1.7q0,2.19-.24,5.46C343.62,225.94,343.54,227.76,343.54,229.22Zm-1.05-18.91a2.68,2.68,0,0,1-1.93-.8,2.56,2.56,0,0,1-.82-1.91,2.6,2.6,0,0,1,.82-1.91,2.71,2.71,0,0,1,1.93-.79,2.65,2.65,0,0,1,1.92.79,2.59,2.59,0,0,1,.81,1.91,2.55,2.55,0,0,1-.81,1.91A2.62,2.62,0,0,1,342.49,210.31Z"/><path class="cls-4" d="M367,220c-.33,0-.72,0-1.16,0s-.82,0-1.15,0-1.41.11-3.17.35L362,234l0,1,0,1.18q.09,5.1-2.44,5.1a2.35,2.35,0,0,1-1.62-.6,1.93,1.93,0,0,1-.69-1.51c0-.59,0-1.48.07-2.66s.07-2.07.07-2.66l-.47-13.6c-1.13,0-2.85-.18-5.17-.39a2.12,2.12,0,0,1-2.07-2.31,2.4,2.4,0,0,1,.63-1.7,2.1,2.1,0,0,1,1.61-.68l4.89.4c0-.79,0-1.85-.11-3.18s-.1-2.29-.1-2.88a2.11,2.11,0,0,1,.67-1.61,2.3,2.3,0,0,1,1.66-.64c1.39,0,2.21,1.14,2.44,3.42.05.57.07,1.26.07,2.07l0,1.35,0,1.45c1.93-.25,3-.38,3.31-.38a13,13,0,0,1,3.17.24,2.05,2.05,0,0,1,1.42,2.19,2.38,2.38,0,0,1-.64,1.69A2.2,2.2,0,0,1,367,220Z"/><path class="cls-4" d="M384.77,240.87a13.13,13.13,0,0,1-8.53-2.64,9.94,9.94,0,0,1-3.56-8.15,17,17,0,0,1,2.93-10.15,10,10,0,0,1,8.53-4.48,13.37,13.37,0,0,1,6.31,1.31,5.26,5.26,0,0,1,3,4.94c0,1.55-.87,3-2.63,4.24a37.92,37.92,0,0,1-4.94,2.6L377,232.76a8.49,8.49,0,0,0,3.24,2.91,10,10,0,0,0,4.54,1,14.09,14.09,0,0,0,3.77-.61q2.74-.76,3.54-2c.53-.83,1.09-1.25,1.7-1.25a2,2,0,0,1,1.45.62,1.93,1.93,0,0,1,.65,1.43q0,2.59-4.17,4.45A17,17,0,0,1,384.77,240.87Zm-.63-21.22a6,6,0,0,0-4.73,2.2,14.79,14.79,0,0,0-2.82,6.62l7.15-3.4a30.53,30.53,0,0,0,6-3.56A8,8,0,0,0,384.14,219.65Z"/></svg>